<?xml version="1.0" encoding="UTF-8" standalone="no"?>
<!-- Created with Inkscape (http://www.inkscape.org/) -->

<svg
   width="1024"
   height="1024"
   viewBox="0 0 270.93333 270.93336"
   version="1.1"
   id="svg5"
   inkscape:version="1.1.1 (3bf5ae0d25, 2021-09-20)"
   sodipodi:docname="logo.svg"
   xmlns:inkscape="http://www.inkscape.org/namespaces/inkscape"
   xmlns:sodipodi="http://sodipodi.sourceforge.net/DTD/sodipodi-0.dtd"
   xmlns:xlink="http://www.w3.org/1999/xlink"
   xmlns="http://www.w3.org/2000/svg"
   xmlns:svg="http://www.w3.org/2000/svg">
  <sodipodi:namedview
     id="namedview7"
     pagecolor="#dcdcdc"
     bordercolor="#cccccc"
     borderopacity="1"
     inkscape:pageshadow="0"
     inkscape:pageopacity="0"
     inkscape:pagecheckerboard="0"
     inkscape:document-units="mm"
     showgrid="false"
     showguides="true"
     inkscape:guide-bbox="true"
     inkscape:snap-intersection-paths="true"
     inkscape:zoom="0.45291836"
     inkscape:cx="697.69748"
     inkscape:cy="437.16488"
     inkscape:window-width="1920"
     inkscape:window-height="974"
     inkscape:window-x="-11"
     inkscape:window-y="-11"
     inkscape:window-maximized="1"
     inkscape:current-layer="layer1"
     inkscape:object-paths="true"
     inkscape:object-nodes="true"
     inkscape:snap-smooth-nodes="true"
     showborder="true"
     fit-margin-top="0"
     fit-margin-left="0"
     fit-margin-right="0"
     fit-margin-bottom="0"
     units="px" />
  <defs
     id="defs2">
    <linearGradient
       inkscape:collect="always"
       id="linearGradient46213">
      <stop
         style="stop-color:#cccccc;stop-opacity:1"
         offset="0"
         id="stop46209" />
      <stop
         style="stop-color:#2c58fd;stop-opacity:1"
         offset="1"
         id="stop46211" />
    </linearGradient>
    <linearGradient
       inkscape:collect="always"
       id="linearGradient24519">
      <stop
         style="stop-color:#4ecdbb;stop-opacity:1"
         offset="0"
         id="stop24515" />
      <stop
         style="stop-color:#55ebab;stop-opacity:1"
         offset="1"
         id="stop24517" />
    </linearGradient>
    <linearGradient
       inkscape:collect="always"
       id="linearGradient12517">
      <stop
         style="stop-color:#4bf6b1;stop-opacity:1"
         offset="0"
         id="stop12513" />
      <stop
         style="stop-color:#22bef1;stop-opacity:1"
         offset="1"
         id="stop12515" />
    </linearGradient>
    <linearGradient
       inkscape:collect="always"
       xlink:href="#linearGradient12517"
       id="linearGradient12519"
       x1="-199.99675"
       y1="104.75057"
       x2="-260.85074"
       y2="183.40054"
       gradientUnits="userSpaceOnUse" />
    <linearGradient
       inkscape:collect="always"
       xlink:href="#linearGradient24519"
       id="linearGradient24521"
       x1="-120.31733"
       y1="104.75057"
       x2="-120.17149"
       y2="72.700851"
       gradientUnits="userSpaceOnUse" />
    <radialGradient
       inkscape:collect="always"
       xlink:href="#linearGradient46213"
       id="radialGradient46215"
       cx="-191.24831"
       cy="178.99368"
       fx="-191.24831"
       fy="178.99368"
       r="69.602959"
       gradientTransform="matrix(1,0,0,0.6805867,0,57.172962)"
       gradientUnits="userSpaceOnUse" />
  </defs>
  <g
     inkscape:label="Layer 1"
     inkscape:groupmode="layer"
     id="layer1"
     transform="translate(313.45837,-14.066029)">
    <path
       style="fill:#000000;stroke-width:0.264583"
       id="path836"
       d="" />
    <rect
       style="opacity:0.475954;fill:none;fill-opacity:1;stroke-width:2.01839;stroke-linejoin:round"
       id="rect1634"
       width="270.93332"
       height="270.93332"
       x="-313.45837"
       y="14.066029" />
    <g
       id="g54597"
       transform="matrix(1.6348951,0,0,1.6348951,113.00607,-94.937568)">
      <path
         id="rect2564"
         style="opacity:1;fill:url(#radialGradient46215);fill-opacity:1;stroke-width:2;stroke-linejoin:round"
         d="m -253.20935,131.62283 c -4.23359,0 -7.64139,3.4078 -7.64139,7.6414 v 59.86921 h -5.2e-4 c 0,0.0243 4.5e-4,0.0486 5.2e-4,0.0729 v 0.12092 l 10e-4,0.001 c 0.0661,9.27251 4.84661,17.88009 12.69587,22.83375 4.42251,2.79104 9.47318,4.20314 14.54226,4.20181 l 5.2e-4,5.1e-4 h 0.0806 84.54936 c 5.10136,0.0194 10.18789,-1.39362 14.63838,-4.20232 7.89242,-4.9809 12.6826,-13.65596 12.6969,-22.98672 l 5.1e-4,-5.1e-4 v -0.0413 -59.86921 c 0,-4.2336 -3.40831,-7.6414 -7.64191,-7.6414 -4.23359,0 -7.64191,3.4078 -7.64191,7.6414 v 55.50668 a 14.284133,14.284133 0 0 1 -14.28388,14.26528 h -80.07056 a 14.284133,14.284133 0 0 1 -14.28389,-14.26528 v -55.50668 c 0,-4.2336 -3.40831,-7.6414 -7.64191,-7.6414 z" />
      <path
         id="rect10127"
         style="opacity:1;fill:url(#linearGradient24521);fill-opacity:1;stroke-width:1.53769;stroke-linejoin:round"
         d="m -220.14573,72.700848 v 32.049722 h 118.00365 c 3.871422,-10e-5 7.009808,-3.13848 7.009908,-7.009908 l -0.0124,-0.0124 c 0.0049,-0.11108 0.009,-0.22218 0.0124,-0.33331 -7.7e-5,-13.630704 -11.199178,-24.683387 -25.020698,-24.693585 l -5.2e-4,-5.19e-4 h -0.0181 z"
         sodipodi:nodetypes="cccccccccc" />
      <path
         id="path7158"
         style="opacity:1;fill:url(#linearGradient12519);fill-opacity:1;stroke-width:7.55907;stroke-linejoin:round"
         d="m -227.73958,72.700848 c -18.2868,-2.1e-5 -33.11118,14.824364 -33.11116,33.111152 v 77.58855 l 45.57965,0.004 0.005,-0.003 c 8.06246,1e-4 15.96013,-1.7285 22.77897,-4.98574 7.27177,-3.47913 12.9858,-8.54039 16.39332,-14.52056 l 0.0212,-0.0103 65.83253,-89.158387 c -3.21723,-1.55607 -6.5638,-1.801323 -9.91244,-2.025626 z"
         sodipodi:nodetypes="ccccccccccc" />
    </g>
  </g>
</svg>
