<svg xmlns="http://www.w3.org/2000/svg" version="1.1" xmlns:xlink="http://www.w3.org/1999/xlink" xmlns:svgjs="http://svgjs.com/svgjs" width="1440" height="560" preserveAspectRatio="none" viewBox="0 0 1440 560">
    <g mask="url(&quot;#SvgjsMask1019&quot;)" fill="none">
        <rect width="1440" height="560" x="0" y="0" fill="#0e2a47"></rect>
        <path d="M74.33 47.9L139.29 85.4L139.29 160.4L74.33 197.9L9.38 160.4L9.38 85.4zM464.06 47.9L529.01 85.4L529.01 160.4L464.06 197.9L399.1 160.4L399.1 85.4zM399.1 385.4L464.06 422.9L464.06 497.9L399.1 535.4L334.15 497.9L334.15 422.9zM529.01 -64.6L593.96 -27.1L593.96 47.9L529.01 85.4L464.06 47.9L464.06 -27.1zM593.96 272.9L658.92 310.4L658.92 385.4L593.96 422.9L529.01 385.4L529.01 310.4zM658.92 -64.6L723.87 -27.1L723.87 47.9L658.92 85.4L593.96 47.9L593.96 -27.1zM788.82 385.4L853.78 422.9L853.78 497.9L788.82 535.4L723.87 497.9L723.87 422.9zM983.69 497.9L1048.64 535.4L1048.64 610.4L983.69 647.9L918.73 610.4L918.73 535.4zM1243.5 47.9L1308.45 85.4L1308.45 160.4L1243.5 197.9L1178.55 160.4L1178.55 85.4zM1308.46 -64.6L1373.41 -27.1L1373.41 47.9L1308.46 85.4L1243.5 47.9L1243.5 -27.1zM1438.36 385.4L1503.32 422.9L1503.32 497.9L1438.36 535.4L1373.41 497.9L1373.41 422.9z" stroke="#03305d" stroke-width="2"></path>
        <path d="M66.83 47.9 a7.5 7.5 0 1 0 15 0 a7.5 7.5 0 1 0 -15 0zM131.79 85.4 a7.5 7.5 0 1 0 15 0 a7.5 7.5 0 1 0 -15 0zM131.79 160.4 a7.5 7.5 0 1 0 15 0 a7.5 7.5 0 1 0 -15 0zM66.83 197.9 a7.5 7.5 0 1 0 15 0 a7.5 7.5 0 1 0 -15 0zM1.88 160.4 a7.5 7.5 0 1 0 15 0 a7.5 7.5 0 1 0 -15 0zM1.88 85.4 a7.5 7.5 0 1 0 15 0 a7.5 7.5 0 1 0 -15 0zM456.56 47.9 a7.5 7.5 0 1 0 15 0 a7.5 7.5 0 1 0 -15 0zM521.51 85.4 a7.5 7.5 0 1 0 15 0 a7.5 7.5 0 1 0 -15 0zM521.51 160.4 a7.5 7.5 0 1 0 15 0 a7.5 7.5 0 1 0 -15 0zM456.56 197.9 a7.5 7.5 0 1 0 15 0 a7.5 7.5 0 1 0 -15 0zM391.6 160.4 a7.5 7.5 0 1 0 15 0 a7.5 7.5 0 1 0 -15 0zM391.6 85.4 a7.5 7.5 0 1 0 15 0 a7.5 7.5 0 1 0 -15 0zM391.6 385.4 a7.5 7.5 0 1 0 15 0 a7.5 7.5 0 1 0 -15 0zM456.56 422.9 a7.5 7.5 0 1 0 15 0 a7.5 7.5 0 1 0 -15 0zM456.56 497.9 a7.5 7.5 0 1 0 15 0 a7.5 7.5 0 1 0 -15 0zM391.6 535.4 a7.5 7.5 0 1 0 15 0 a7.5 7.5 0 1 0 -15 0zM326.65 497.9 a7.5 7.5 0 1 0 15 0 a7.5 7.5 0 1 0 -15 0zM326.65 422.9 a7.5 7.5 0 1 0 15 0 a7.5 7.5 0 1 0 -15 0zM521.51 -64.6 a7.5 7.5 0 1 0 15 0 a7.5 7.5 0 1 0 -15 0zM586.46 -27.1 a7.5 7.5 0 1 0 15 0 a7.5 7.5 0 1 0 -15 0zM586.46 47.9 a7.5 7.5 0 1 0 15 0 a7.5 7.5 0 1 0 -15 0zM456.56 -27.1 a7.5 7.5 0 1 0 15 0 a7.5 7.5 0 1 0 -15 0zM586.46 272.9 a7.5 7.5 0 1 0 15 0 a7.5 7.5 0 1 0 -15 0zM651.42 310.4 a7.5 7.5 0 1 0 15 0 a7.5 7.5 0 1 0 -15 0zM651.42 385.4 a7.5 7.5 0 1 0 15 0 a7.5 7.5 0 1 0 -15 0zM586.46 422.9 a7.5 7.5 0 1 0 15 0 a7.5 7.5 0 1 0 -15 0zM521.51 385.4 a7.5 7.5 0 1 0 15 0 a7.5 7.5 0 1 0 -15 0zM521.51 310.4 a7.5 7.5 0 1 0 15 0 a7.5 7.5 0 1 0 -15 0zM651.42 -64.6 a7.5 7.5 0 1 0 15 0 a7.5 7.5 0 1 0 -15 0zM716.37 -27.1 a7.5 7.5 0 1 0 15 0 a7.5 7.5 0 1 0 -15 0zM716.37 47.9 a7.5 7.5 0 1 0 15 0 a7.5 7.5 0 1 0 -15 0zM651.42 85.4 a7.5 7.5 0 1 0 15 0 a7.5 7.5 0 1 0 -15 0zM781.32 385.4 a7.5 7.5 0 1 0 15 0 a7.5 7.5 0 1 0 -15 0zM846.28 422.9 a7.5 7.5 0 1 0 15 0 a7.5 7.5 0 1 0 -15 0zM846.28 497.9 a7.5 7.5 0 1 0 15 0 a7.5 7.5 0 1 0 -15 0zM781.32 535.4 a7.5 7.5 0 1 0 15 0 a7.5 7.5 0 1 0 -15 0zM716.37 497.9 a7.5 7.5 0 1 0 15 0 a7.5 7.5 0 1 0 -15 0zM716.37 422.9 a7.5 7.5 0 1 0 15 0 a7.5 7.5 0 1 0 -15 0zM976.19 497.9 a7.5 7.5 0 1 0 15 0 a7.5 7.5 0 1 0 -15 0zM1041.14 535.4 a7.5 7.5 0 1 0 15 0 a7.5 7.5 0 1 0 -15 0zM1041.14 610.4 a7.5 7.5 0 1 0 15 0 a7.5 7.5 0 1 0 -15 0zM976.19 647.9 a7.5 7.5 0 1 0 15 0 a7.5 7.5 0 1 0 -15 0zM911.23 610.4 a7.5 7.5 0 1 0 15 0 a7.5 7.5 0 1 0 -15 0zM911.23 535.4 a7.5 7.5 0 1 0 15 0 a7.5 7.5 0 1 0 -15 0zM1236 47.9 a7.5 7.5 0 1 0 15 0 a7.5 7.5 0 1 0 -15 0zM1300.95 85.4 a7.5 7.5 0 1 0 15 0 a7.5 7.5 0 1 0 -15 0zM1300.95 160.4 a7.5 7.5 0 1 0 15 0 a7.5 7.5 0 1 0 -15 0zM1236 197.9 a7.5 7.5 0 1 0 15 0 a7.5 7.5 0 1 0 -15 0zM1171.05 160.4 a7.5 7.5 0 1 0 15 0 a7.5 7.5 0 1 0 -15 0zM1171.05 85.4 a7.5 7.5 0 1 0 15 0 a7.5 7.5 0 1 0 -15 0zM1300.96 -64.6 a7.5 7.5 0 1 0 15 0 a7.5 7.5 0 1 0 -15 0zM1365.91 -27.1 a7.5 7.5 0 1 0 15 0 a7.5 7.5 0 1 0 -15 0zM1365.91 47.9 a7.5 7.5 0 1 0 15 0 a7.5 7.5 0 1 0 -15 0zM1300.96 85.4 a7.5 7.5 0 1 0 15 0 a7.5 7.5 0 1 0 -15 0zM1236 -27.1 a7.5 7.5 0 1 0 15 0 a7.5 7.5 0 1 0 -15 0zM1430.86 385.4 a7.5 7.5 0 1 0 15 0 a7.5 7.5 0 1 0 -15 0zM1495.82 422.9 a7.5 7.5 0 1 0 15 0 a7.5 7.5 0 1 0 -15 0zM1495.82 497.9 a7.5 7.5 0 1 0 15 0 a7.5 7.5 0 1 0 -15 0zM1430.86 535.4 a7.5 7.5 0 1 0 15 0 a7.5 7.5 0 1 0 -15 0zM1365.91 497.9 a7.5 7.5 0 1 0 15 0 a7.5 7.5 0 1 0 -15 0zM1365.91 422.9 a7.5 7.5 0 1 0 15 0 a7.5 7.5 0 1 0 -15 0z" fill="#03305d"></path>
        <path d="M39.24 311.6L90.34 341.1L90.34 400.1L39.24 429.6L-11.86 400.1L-11.86 341.1zM192.53 400.1L243.63 429.6L243.63 488.6L192.53 518.1L141.43 488.6L141.43 429.6zM243.63 -42.4L294.72 -12.9L294.72 46.1L243.63 75.6L192.53 46.1L192.53 -12.9zM243.63 311.6L294.72 341.1L294.72 400.1L243.63 429.6L192.53 400.1L192.53 341.1zM345.82 134.6L396.92 164.1L396.92 223.1L345.82 252.6L294.72 223.1L294.72 164.1zM396.92 223.1L448.02 252.6L448.02 311.6L396.92 341.1L345.82 311.6L345.82 252.6zM448.02 134.6L499.11 164.1L499.11 223.1L448.02 252.6L396.92 223.1L396.92 164.1zM601.31 400.1L652.4 429.6L652.4 488.6L601.31 518.1L550.21 488.6L550.21 429.6zM652.4 -42.4L703.5 -12.9L703.5 46.1L652.4 75.6L601.31 46.1L601.31 -12.9zM703.5 46.1L754.6 75.6L754.6 134.6L703.5 164.1L652.4 134.6L652.4 75.6zM754.6 488.6L805.69 518.1L805.69 577.1L754.6 606.6L703.5 577.1L703.5 518.1zM856.79 -42.4L907.89 -12.9L907.89 46.1L856.79 75.6L805.69 46.1L805.69 -12.9zM856.79 134.6L907.89 164.1L907.89 223.1L856.79 252.6L805.69 223.1L805.69 164.1zM907.89 223.1L958.99 252.6L958.99 311.6L907.89 341.1L856.79 311.6L856.79 252.6zM907.89 400.1L958.99 429.6L958.99 488.6L907.89 518.1L856.79 488.6L856.79 429.6zM1112.28 46.1L1163.37 75.6L1163.37 134.6L1112.28 164.1L1061.18 134.6L1061.18 75.6zM1163.37 311.6L1214.47 341.1L1214.47 400.1L1163.37 429.6L1112.28 400.1L1112.28 341.1zM1265.57 311.6L1316.66 341.1L1316.66 400.1L1265.57 429.6L1214.47 400.1L1214.47 341.1zM1469.95 -42.4L1521.05 -12.9L1521.05 46.1L1469.95 75.6L1418.86 46.1L1418.86 -12.9zM1469.95 488.6L1521.05 518.1L1521.05 577.1L1469.95 606.6L1418.86 577.1L1418.86 518.1z" stroke="rgba(6, 80, 156, 0.93)" stroke-width="2"></path>
    </g>
    <defs>
        <mask id="SvgjsMask1019">
            <rect width="1440" height="560" fill="#ffffff"></rect>
        </mask>
    </defs>
</svg>